<?xml version="1.0" encoding="iso-8859-1"?>
<!-- Generator: Adobe Illustrator 19.0.0, SVG Export Plug-In . SVG Version: 6.00 Build 0)  -->
<svg version="1.1" id="Layer_1" xmlns="http://www.w3.org/2000/svg" xmlns:xlink="http://www.w3.org/1999/xlink" x="0px" y="0px"
	 viewBox="0 0 511.998 511.998" style="enable-background:new 0 0 511.998 511.998;" xml:space="preserve">
<g>
	<g>
		<path d="M458.6,54.523h-12.895V33.105c0-5.633-4.567-10.199-10.199-10.199s-10.199,4.566-10.199,10.199v21.418H86.693V33.105
			c0-5.633-4.566-10.199-10.199-10.199c-5.633,0-10.199,4.566-10.199,10.199v21.418H53.398C23.955,54.523,0,78.478,0,107.921
			v234.877c0,29.444,23.955,53.398,53.398,53.398h100.048c5.118,52.074,49.156,92.896,102.553,92.896
			c53.397,0,97.435-40.822,102.553-92.896H458.6c29.444,0,53.398-23.955,53.398-53.398V107.921
			C511.998,78.477,488.044,54.523,458.6,54.523z M338.025,396.066c-4.567,37.572-34.425,67.431-71.998,71.998
			c-0.862-4.761-5.019-8.375-10.027-8.375c-5.009,0-9.166,3.614-10.027,8.375c-37.572-4.567-67.431-34.426-71.998-71.998
			c4.761-0.861,8.375-5.018,8.375-10.027s-3.614-9.166-8.375-10.027c4.567-37.572,34.426-67.431,71.998-71.998
			c0.861,4.761,5.018,8.375,10.027,8.375c5.009,0,9.166-3.614,10.027-8.375c37.572,4.567,67.431,34.426,71.998,71.998
			c-4.761,0.861-8.375,5.018-8.375,10.027S333.265,395.205,338.025,396.066z M491.602,342.798c0,18.196-14.804,33-33,33H358.546
			c-5.158-52.034-49.177-92.813-102.546-92.813s-97.388,40.778-102.546,92.813H53.398c-18.195,0-33-14.804-33-33V134.077h471.203
			V342.798z M491.602,113.678H20.398v-5.757c0-18.196,14.804-33,33-33h12.897V88.18c0,5.633,4.566,10.199,10.199,10.199
			c5.633,0,10.199-4.566,10.199-10.199V74.921h338.614V88.18c0,5.633,4.567,10.199,10.199,10.199s10.199-4.566,10.199-10.199V74.921
			h12.897c18.196,0,33,14.804,33,33V113.678z"/>
	</g>
</g>
<g>
	<g>
		<path d="M63.235,160.595h-7.139c-5.633,0-10.199,4.566-10.199,10.199c0,5.633,4.566,10.199,10.199,10.199h7.139
			c5.633,0,10.199-4.566,10.199-10.199C73.434,165.161,68.868,160.595,63.235,160.595z"/>
	</g>
</g>
<g>
	<g>
		<path d="M119.331,160.595h-7.139c-5.633,0-10.199,4.566-10.199,10.199c0,5.633,4.566,10.199,10.199,10.199h7.139
			c5.633,0,10.199-4.566,10.199-10.199C129.53,165.161,124.964,160.595,119.331,160.595z"/>
	</g>
</g>
<g>
	<g>
		<path d="M175.426,160.595h-7.139c-5.633,0-10.199,4.566-10.199,10.199c0,5.633,4.566,10.199,10.199,10.199h7.139
			c5.633,0,10.199-4.566,10.199-10.199C185.625,165.161,181.059,160.595,175.426,160.595z"/>
	</g>
</g>
<g>
	<g>
		<path d="M231.522,160.595h-7.139c-5.633,0-10.199,4.566-10.199,10.199c0,5.633,4.566,10.199,10.199,10.199h7.139
			c5.633,0,10.199-4.566,10.199-10.199C241.721,165.161,237.155,160.595,231.522,160.595z"/>
	</g>
</g>
<g>
	<g>
		<path d="M287.618,160.595h-7.139c-5.632,0-10.199,4.566-10.199,10.199c0,5.633,4.567,10.199,10.199,10.199h7.139
			c5.632,0,10.199-4.566,10.199-10.199C297.817,165.161,293.25,160.595,287.618,160.595z"/>
	</g>
</g>
<g>
	<g>
		<path d="M343.713,160.595h-7.139c-5.632,0-10.199,4.566-10.199,10.199c0,5.633,4.567,10.199,10.199,10.199h7.139
			c5.632,0,10.199-4.566,10.199-10.199C353.912,165.161,349.345,160.595,343.713,160.595z"/>
	</g>
</g>
<g>
	<g>
		<path d="M399.809,160.595h-7.139c-5.632,0-10.199,4.566-10.199,10.199c0,5.633,4.567,10.199,10.199,10.199h7.139
			c5.632,0,10.199-4.566,10.199-10.199C410.008,165.161,405.441,160.595,399.809,160.595z"/>
	</g>
</g>
<g>
	<g>
		<path d="M455.904,160.595h-7.139c-5.632,0-10.199,4.566-10.199,10.199c0,5.633,4.567,10.199,10.199,10.199h7.139
			c5.632,0,10.199-4.566,10.199-10.199C466.104,165.161,461.536,160.595,455.904,160.595z"/>
	</g>
</g>
<g>
	<g>
		<path d="M63.235,214.99h-7.139c-5.633,0-10.199,4.566-10.199,10.199c0,5.633,4.566,10.199,10.199,10.199h7.139
			c5.633,0,10.199-4.566,10.199-10.199C73.434,219.556,68.868,214.99,63.235,214.99z"/>
	</g>
</g>
<g>
	<g>
		<path d="M119.331,214.99h-7.139c-5.633,0-10.199,4.566-10.199,10.199c0,5.633,4.566,10.199,10.199,10.199h7.139
			c5.633,0,10.199-4.566,10.199-10.199C129.53,219.556,124.964,214.99,119.331,214.99z"/>
	</g>
</g>
<g>
	<g>
		<path d="M175.426,214.99h-7.139c-5.633,0-10.199,4.566-10.199,10.199c0,5.633,4.566,10.199,10.199,10.199h7.139
			c5.633,0,10.199-4.566,10.199-10.199C185.625,219.556,181.059,214.99,175.426,214.99z"/>
	</g>
</g>
<g>
	<g>
		<path d="M231.522,214.99h-7.139c-5.633,0-10.199,4.566-10.199,10.199c0,5.633,4.566,10.199,10.199,10.199h7.139
			c5.633,0,10.199-4.566,10.199-10.199C241.721,219.556,237.155,214.99,231.522,214.99z"/>
	</g>
</g>
<g>
	<g>
		<path d="M287.618,214.99h-7.139c-5.632,0-10.199,4.566-10.199,10.199c0,5.633,4.567,10.199,10.199,10.199h7.139
			c5.632,0,10.199-4.566,10.199-10.199C297.817,219.556,293.25,214.99,287.618,214.99z"/>
	</g>
</g>
<g>
	<g>
		<path d="M343.713,214.99h-7.139c-5.632,0-10.199,4.566-10.199,10.199c0,5.633,4.567,10.199,10.199,10.199h7.139
			c5.632,0,10.199-4.566,10.199-10.199C353.912,219.556,349.345,214.99,343.713,214.99z"/>
	</g>
</g>
<g>
	<g>
		<path d="M399.809,214.99h-7.139c-5.632,0-10.199,4.566-10.199,10.199c0,5.633,4.567,10.199,10.199,10.199h7.139
			c5.632,0,10.199-4.566,10.199-10.199C410.008,219.556,405.441,214.99,399.809,214.99z"/>
	</g>
</g>
<g>
	<g>
		<path d="M455.904,214.99h-7.139c-5.632,0-10.199,4.566-10.199,10.199c0,5.633,4.567,10.199,10.199,10.199h7.139
			c5.632,0,10.199-4.566,10.199-10.199C466.104,219.556,461.536,214.99,455.904,214.99z"/>
	</g>
</g>
<g>
	<g>
		<path d="M63.235,269.386h-7.139c-5.633,0-10.199,4.566-10.199,10.199c0,5.633,4.566,10.199,10.199,10.199h7.139
			c5.633,0,10.199-4.566,10.199-10.199C73.434,273.953,68.868,269.386,63.235,269.386z"/>
	</g>
</g>
<g>
	<g>
		<path d="M119.331,269.386h-7.139c-5.633,0-10.199,4.566-10.199,10.199c0,5.633,4.566,10.199,10.199,10.199h7.139
			c5.633,0,10.199-4.566,10.199-10.199C129.53,273.953,124.964,269.386,119.331,269.386z"/>
	</g>
</g>
<g>
	<g>
		<path d="M175.426,269.386h-7.139c-5.633,0-10.199,4.566-10.199,10.199c0,5.633,4.566,10.199,10.199,10.199h7.139
			c5.633,0,10.199-4.566,10.199-10.199C185.625,273.953,181.059,269.386,175.426,269.386z"/>
	</g>
</g>
<g>
	<g>
		<path d="M343.713,269.386h-7.139c-5.632,0-10.199,4.566-10.199,10.199c0,5.633,4.567,10.199,10.199,10.199h7.139
			c5.632,0,10.199-4.566,10.199-10.199C353.912,273.953,349.345,269.386,343.713,269.386z"/>
	</g>
</g>
<g>
	<g>
		<path d="M399.809,269.386h-7.139c-5.632,0-10.199,4.566-10.199,10.199c0,5.633,4.567,10.199,10.199,10.199h7.139
			c5.632,0,10.199-4.566,10.199-10.199C410.008,273.953,405.441,269.386,399.809,269.386z"/>
	</g>
</g>
<g>
	<g>
		<path d="M455.904,269.386h-7.139c-5.632,0-10.199,4.566-10.199,10.199c0,5.633,4.567,10.199,10.199,10.199h7.139
			c5.632,0,10.199-4.566,10.199-10.199C466.104,273.953,461.536,269.386,455.904,269.386z"/>
	</g>
</g>
<g>
	<g>
		<path d="M63.235,323.782h-7.139c-5.633,0-10.199,4.566-10.199,10.199s4.566,10.199,10.199,10.199h7.139
			c5.633,0,10.199-4.566,10.199-10.199S68.868,323.782,63.235,323.782z"/>
	</g>
</g>
<g>
	<g>
		<path d="M119.331,323.782h-7.139c-5.633,0-10.199,4.566-10.199,10.199s4.566,10.199,10.199,10.199h7.139
			c5.633,0,10.199-4.566,10.199-10.199S124.964,323.782,119.331,323.782z"/>
	</g>
</g>
<g>
	<g>
		<path d="M399.809,323.782h-7.139c-5.632,0-10.199,4.566-10.199,10.199s4.567,10.199,10.199,10.199h7.139
			c5.632,0,10.199-4.566,10.199-10.199S405.441,323.782,399.809,323.782z"/>
	</g>
</g>
<g>
	<g>
		<path d="M455.904,323.782h-7.139c-5.632,0-10.199,4.566-10.199,10.199s4.567,10.199,10.199,10.199h7.139
			c5.632,0,10.199-4.566,10.199-10.199S461.536,323.782,455.904,323.782z"/>
	</g>
</g>
<g>
	<g>
		<path d="M256,319.183c-5.633,0-10.199,4.566-10.199,10.199v2.091c0,5.633,4.566,10.199,10.199,10.199
			c5.632,0,10.199-4.566,10.199-10.199v-2.091C266.199,323.749,261.632,319.183,256,319.183z"/>
	</g>
</g>
<g>
	<g>
		<path d="M289.332,404.946l-23.133-23.526v-18.33c0-5.633-4.567-10.199-10.199-10.199c-5.633,0-10.199,4.566-10.199,10.199v22.504
			c0,2.783,1.118,5.304,2.926,7.145l0.001,0.006l26.058,26.503c1.997,2.031,4.635,3.049,7.274,3.049c2.58,0,5.164-0.974,7.15-2.926
			C293.226,415.421,293.281,408.963,289.332,404.946z"/>
	</g>
</g>
<g>
</g>
<g>
</g>
<g>
</g>
<g>
</g>
<g>
</g>
<g>
</g>
<g>
</g>
<g>
</g>
<g>
</g>
<g>
</g>
<g>
</g>
<g>
</g>
<g>
</g>
<g>
</g>
<g>
</g>
</svg>
