<?xml version="1.0" encoding="iso-8859-1"?>
<!-- Generator: Adobe Illustrator 19.0.0, SVG Export Plug-In . SVG Version: 6.00 Build 0)  -->
<svg version="1.1" id="Layer_1" xmlns="http://www.w3.org/2000/svg" xmlns:xlink="http://www.w3.org/1999/xlink" x="0px" y="0px"
	 viewBox="0 0 512.001 512.001" style="enable-background:new 0 0 512.001 512.001;" xml:space="preserve">
<g>
	<g>
		<path d="M345.731,0c-91.052,0-165.128,74.077-165.128,165.128c0,42.225,15.939,80.794,42.108,110.023l-32.769,32.769
			l-15.067-15.067c-3.983-3.982-10.441-3.982-14.425,0L13.541,439.762c-7.994,7.994-12.398,18.625-12.398,29.931
			c0,11.305,4.403,21.935,12.398,29.931c8.252,8.251,19.091,12.377,29.93,12.377s21.678-4.126,29.931-12.377L220.31,352.715
			c3.983-3.983,3.983-10.441,0-14.425l-15.944-15.944l32.854-32.854c29.04,25.372,67.01,40.765,108.511,40.765
			c91.052,0,165.128-74.077,165.128-165.128S436.782,0,345.731,0z M58.977,485.198c-8.549,8.55-22.462,8.55-31.012,0
			c-4.142-4.142-6.423-9.649-6.423-15.505c0-5.858,2.281-11.364,6.423-15.505l139.697-139.697l31.012,31.011L58.977,485.198z
			 M345.731,309.857c-79.804,0-144.728-64.925-144.728-144.728S265.927,20.399,345.731,20.399s144.728,64.925,144.728,144.728
			S425.535,309.857,345.731,309.857z"/>
	</g>
</g>
<g>
	<g>
		<path d="M383.528,53.002c-6.66-7.108-16.064-11.184-25.803-11.184h-23.158c-9.739,0-19.143,4.076-25.801,11.183
			c-6.658,7.107-10.115,16.757-9.481,26.474l1.029,15.783l2.403,36.854c0.972,14.906,9.366,28.103,22.455,35.302
			c6.566,3.611,13.769,5.417,20.973,5.417s14.407-1.806,20.973-5.418c13.088-7.199,21.482-20.395,22.455-35.301l2.746-42.113
			l0.686-10.522C393.641,69.759,390.186,60.11,383.528,53.002z M319.642,78.148c-0.272-4.172,1.152-8.149,4.009-11.2
			c2.859-3.051,6.735-4.731,10.916-4.731h15.717l-2.756,7.351c-1.445,2.048-8.456,10.502-27.549,13.74L319.642,78.148z
			 M369.217,130.784c-0.516,7.919-4.975,14.93-11.928,18.754c-6.978,3.839-15.309,3.838-22.285,0.001
			c-6.953-3.825-11.413-10.836-11.93-18.755l-1.765-27.049c16.326-2.418,27.119-8.008,33.97-13.308
			c1.203,0.829,2.522,1.615,3.957,2.356c2.839,1.467,6.858,2.915,12.172,4.385L369.217,130.784z M368.601,74.66
			c-0.385-0.199-0.703-0.379-0.991-0.551l2.166-5.778c1.714,2.321,2.712,5.043,2.881,7.92
			C370.368,75.497,369.169,74.955,368.601,74.66z"/>
	</g>
</g>
<g>
	<g>
		<path d="M447.942,231.784c-4.778-26.37-25.669-47.419-51.992-52.377c-3.976-0.747-8.038-1.126-12.074-1.126h-11.551
			c-2.705,0-5.3,1.075-7.212,2.987l-18.967,18.967l-18.966-18.967c-1.912-1.912-4.507-2.987-7.212-2.987h-11.551
			c-4.036,0-8.097,0.379-12.077,1.127c-26.318,4.956-47.211,26.004-51.988,52.376c-1.492,8.239,0.73,16.65,6.097,23.077
			c5.367,6.427,13.246,10.112,21.619,10.112h148.159c8.373,0,16.253-3.685,21.62-10.112
			C447.213,248.434,449.434,240.022,447.942,231.784z M426.188,241.785c-0.87,1.041-2.801,2.789-5.963,2.789H272.067
			c-3.162,0-5.093-1.747-5.963-2.789c-0.87-1.041-2.245-3.253-1.682-6.364c3.281-18.109,17.624-32.563,35.688-35.965
			c2.738-0.515,5.531-0.776,8.306-0.776h7.326l23.191,23.192c1.912,1.912,4.507,2.987,7.212,2.987c2.705,0,5.3-1.075,7.212-2.987
			l23.192-23.192h7.326c2.774,0,5.568,0.261,8.302,0.775c18.068,3.403,32.41,17.856,35.691,35.965
			C428.433,238.531,427.058,240.742,426.188,241.785z"/>
	</g>
</g>
<g>
	<g>
		<path d="M175.496,333.965c-3.983-3.982-10.441-3.982-14.425,0l-44.367,44.368c-3.983,3.983-3.983,10.441,0,14.425
			c1.992,1.991,4.602,2.987,7.212,2.987c2.61,0,5.221-0.997,7.212-2.987l44.368-44.368
			C179.479,344.407,179.479,337.949,175.496,333.965z"/>
	</g>
</g>
<g>
	<g>
		<path d="M109.199,399.943c-3.983-3.982-10.441-3.982-14.424,0l-4.909,4.909c-3.983,3.983-3.983,10.441,0,14.425
			c1.992,1.991,4.602,2.987,7.212,2.987c2.61,0,5.221-0.997,7.212-2.987l4.909-4.909
			C113.182,410.385,113.182,403.927,109.199,399.943z"/>
	</g>
</g>
<g>
</g>
<g>
</g>
<g>
</g>
<g>
</g>
<g>
</g>
<g>
</g>
<g>
</g>
<g>
</g>
<g>
</g>
<g>
</g>
<g>
</g>
<g>
</g>
<g>
</g>
<g>
</g>
<g>
</g>
</svg>
