<svg xmlns="http://www.w3.org/2000/svg" width="265.258" height="56.789" viewBox="0 0 265.258 56.789">
  <g id="Group_113" data-name="Group 113" transform="translate(-1115.798 -3592.549)">
    <g id="Group_111" data-name="Group 111" transform="translate(1196.003 3603.22)">
      <path id="Path_104" data-name="Path 104" d="M1331.947,3658.519h-3.165l-7.708-16.833h5.1l3.091,7.188a22.7,22.7,0,0,1,1.266,3.8,27.766,27.766,0,0,1,1.229-3.873l2.9-7.113h4.506Z" transform="translate(-1321.073 -3633.158)" fill="#eaeaea"/>
      <path id="Path_105" data-name="Path 105" d="M1376.453,3619.861a2.462,2.462,0,0,1,2.458,2.5,2.512,2.512,0,0,1-2.458,2.681,2.559,2.559,0,0,1-2.681-2.681A2.517,2.517,0,0,1,1376.453,3619.861Zm-2.234,8.527h4.282v16.758h-4.282Z" transform="translate(-1353.182 -3619.861)" fill="#eaeaea"/>
      <path id="Path_106" data-name="Path 106" d="M1397.566,3645.74c0-3.276,2.682-5.1,6.145-5.1a9.27,9.27,0,0,1,6.368,2.123l-1.6,3.054a7.9,7.9,0,0,0-4.543-1.6c-1.3,0-2.085.708-2.085,1.452,0,2.793,9.048,1.267,9.048,7.187,0,3.315-2.681,5.362-6.777,5.362-3.091,0-6.219-1.676-7-2.867l2.085-2.793a8.627,8.627,0,0,0,5.213,2.085c1.229,0,2.2-.521,2.2-1.564C1406.615,3650.358,1397.566,3651.847,1397.566,3645.74Z" transform="translate(-1367.406 -3632.52)" fill="#eaeaea"/>
      <path id="Path_107" data-name="Path 107" d="M1445.16,3619.861a2.462,2.462,0,0,1,2.458,2.5,2.512,2.512,0,0,1-2.458,2.681,2.559,2.559,0,0,1-2.681-2.681A2.517,2.517,0,0,1,1445.16,3619.861Zm-2.234,8.527h4.283v16.758h-4.283Z" transform="translate(-1395.043 -3619.861)" fill="#eaeaea"/>
      <path id="Path_108" data-name="Path 108" d="M1467.446,3629.773h4.283v4.655h5.4v4.021h-5.4v6.107c0,1.825.6,3.016,2.01,3.016a4.158,4.158,0,0,0,2.569-.968l1.3,3.314a8.058,8.058,0,0,1-4.952,1.639c-3.8,0-5.214-2.458-5.214-6.74Z" transform="translate(-1410.255 -3625.9)" fill="#eaeaea"/>
      <path id="Path_109" data-name="Path 109" d="M1507.446,3640.638c5.549,0,9.123,3.761,9.123,8.789s-3.574,8.788-9.123,8.788-9.124-3.761-9.124-8.788S1501.9,3640.638,1507.446,3640.638Zm0,13.592a4.791,4.791,0,1,0-4.543-4.8A4.534,4.534,0,0,0,1507.446,3654.23Z" transform="translate(-1429.067 -3632.52)" fill="#eaeaea"/>
      <path id="Path_110" data-name="Path 110" d="M1554.548,3641.222h4.282v1.638a4.3,4.3,0,0,1,3.835-1.937,4.018,4.018,0,0,1,2.606.633l-1.526,4.021a3.571,3.571,0,0,0-2.16-.633,2.889,2.889,0,0,0-2.756,1.788v11.246h-4.282Z" transform="translate(-1463.325 -3632.694)" fill="#eaeaea"/>
      <path id="Path_111" data-name="Path 111" d="M1621.568,3655.31a8.2,8.2,0,0,1-6.666,2.9c-5.437,0-9.086-3.5-9.086-8.788a8.527,8.527,0,0,1,8.677-8.789c2.756,0,5.176.708,6.74,2.272l-2.01,3.388a5.628,5.628,0,0,0-4.171-1.638,4.633,4.633,0,0,0-4.655,4.767,4.7,4.7,0,0,0,4.841,4.8,5.715,5.715,0,0,0,4.319-2.048Z" transform="translate(-1494.561 -3632.52)" fill="#eaeaea"/>
      <path id="Path_112" data-name="Path 112" d="M1653.435,3642.24a12.423,12.423,0,0,1,5.921-1.6c4.952,0,6.7,2.532,6.7,6.964v10.2h-3.724v-1.937a5.953,5.953,0,0,1-4.953,2.16,4.877,4.877,0,0,1-5.251-5.14c0-3.687,2.719-5.436,6.107-5.436a6.96,6.96,0,0,1,3.8,1.08c.112-2.793-.633-4.32-3.128-4.32a9.618,9.618,0,0,0-4.394,1.154Zm8.6,10.649v-1.713a4.757,4.757,0,0,0-2.942-.819c-1.415,0-2.681.67-2.681,2.085,0,1.266,1.042,1.974,2.383,1.974A3.659,3.659,0,0,0,1662.037,3652.889Z" transform="translate(-1522.78 -3632.52)" fill="#eaeaea"/>
      <path id="Path_113" data-name="Path 113" d="M1699.017,3641.222h4.283v1.638a4.3,4.3,0,0,1,3.836-1.937,4.019,4.019,0,0,1,2.606.633l-1.527,4.021a3.569,3.569,0,0,0-2.16-.633,2.889,2.889,0,0,0-2.756,1.788v11.246h-4.283Z" transform="translate(-1551.347 -3632.694)" fill="#eaeaea"/>
      <path id="Path_114" data-name="Path 114" d="M1745.5,3656.13a10.025,10.025,0,0,1-6.405,2.085c-5.4,0-9.012-3.5-9.012-8.788a8.444,8.444,0,0,1,8.863-8.789,8.045,8.045,0,0,1,7.671,10.092h-12.1c.372,2.533,2.383,3.911,5.027,3.911a7.749,7.749,0,0,0,4.73-1.527Zm-11.134-8.267h8.23a3.512,3.512,0,0,0-3.836-3.649A4.139,4.139,0,0,0,1734.366,3647.863Z" transform="translate(-1570.275 -3632.52)" fill="#eaeaea"/>
      <path id="Path_115" data-name="Path 115" d="M1783.093,3670.374a2.813,2.813,0,0,1,2.718,2.756,2.866,2.866,0,0,1-2.718,2.979,2.916,2.916,0,0,1-2.979-2.979A2.874,2.874,0,0,1,1783.093,3670.374Z" transform="translate(-1600.758 -3650.637)" fill="#eaeaea"/>
    </g>
    <g id="Group_112" data-name="Group 112" transform="translate(1115.798 3592.549)">
      <circle id="Ellipse_37" data-name="Ellipse 37" cx="3.379" cy="3.379" r="3.379" transform="translate(28.111 50.03)" fill="#bf214b"/>
      <circle id="Ellipse_38" data-name="Ellipse 38" cx="2.495" cy="2.495" r="2.495" transform="translate(21.863 50.797)" fill="#bf214b" opacity="0.75"/>
      <circle id="Ellipse_39" data-name="Ellipse 39" cx="2.495" cy="2.495" r="2.495" transform="translate(28.996 43.678)" fill="#bf214b" opacity="0.75"/>
      <circle id="Ellipse_40" data-name="Ellipse 40" cx="3.379" cy="3.379" r="3.379" transform="translate(20.979 42.794)" fill="#bf214b"/>
      <circle id="Ellipse_41" data-name="Ellipse 41" cx="2.495" cy="2.495" r="2.495" transform="translate(21.863 36.546)" fill="#bf214b" opacity="0.75"/>
      <circle id="Ellipse_42" data-name="Ellipse 42" cx="3.379" cy="3.379" r="3.379" transform="translate(49.508 28.529)" fill="#bf214b"/>
      <circle id="Ellipse_43" data-name="Ellipse 43" cx="2.495" cy="2.495" r="2.495" transform="translate(43.26 29.414)" fill="#bf214b" opacity="0.75"/>
      <circle id="Ellipse_44" data-name="Ellipse 44" cx="2.495" cy="2.495" r="2.495" transform="translate(14.731 29.414)" fill="#bf214b" opacity="0.75"/>
      <circle id="Ellipse_45" data-name="Ellipse 45" cx="3.379" cy="3.379" r="3.379" transform="translate(7.023 28.529)" fill="#bf214b"/>
      <circle id="Ellipse_46" data-name="Ellipse 46" cx="2.495" cy="2.495" r="2.495" transform="translate(0.466 29.414)" fill="#bf214b" opacity="0.75"/>
      <circle id="Ellipse_47" data-name="Ellipse 47" cx="2.495" cy="2.495" r="2.495" transform="translate(50.392 22.281)" fill="#bf214b" opacity="0.75"/>
      <circle id="Ellipse_48" data-name="Ellipse 48" cx="3.379" cy="3.379" r="3.379" transform="translate(42.376 21.397)" fill="#bf214b"/>
      <circle id="Ellipse_49" data-name="Ellipse 49" cx="2.495" cy="2.495" r="2.495" transform="translate(36.128 22.281)" fill="#bf214b" opacity="0.75"/>
      <circle id="Ellipse_50" data-name="Ellipse 50" cx="2.495" cy="2.495" r="2.495" transform="translate(8.017 22.7)" fill="#bf214b" opacity="0.75"/>
      <circle id="Ellipse_51" data-name="Ellipse 51" cx="3.379" cy="3.379" r="3.379" transform="translate(0 21.815)" fill="#bf214b"/>
      <circle id="Ellipse_52" data-name="Ellipse 52" cx="2.495" cy="2.495" r="2.495" transform="translate(28.996 15.149)" fill="#bf214b" opacity="0.75"/>
      <circle id="Ellipse_53" data-name="Ellipse 53" cx="3.379" cy="3.379" r="3.379" transform="translate(28.111 7.129)" fill="#bf214b"/>
      <circle id="Ellipse_54" data-name="Ellipse 54" cx="2.495" cy="2.495" r="2.495" transform="translate(21.863 8.017)" fill="#bf214b" opacity="0.75"/>
      <circle id="Ellipse_55" data-name="Ellipse 55" cx="2.495" cy="2.495" r="2.495" transform="translate(28.996 0.885)" fill="#bf214b" opacity="0.75"/>
      <circle id="Ellipse_56" data-name="Ellipse 56" cx="3.379" cy="3.379" r="3.379" transform="translate(20.979 0)" fill="#bf214b"/>
    </g>
  </g>
</svg>
