<svg xmlns="http://www.w3.org/2000/svg" width="111.132" height="22.338" viewBox="0 0 111.132 22.338">
  <g id="g163" transform="translate(0)">
    <path id="path161" d="M44.918,61.729l-2.525,2.523L39.87,61.729l2.523-2.523ZM51.039,55.6l4.323,4.325,2.523-2.523L51.039,50.56l-6.846,6.846,2.523,2.523Zm8.648,3.6-2.523,2.523,2.523,2.523,2.521-2.523Zm-8.648,8.648-4.323-4.323-2.523,2.521L51.039,72.9l6.846-6.846-2.523-2.521Zm0-3.6,2.523-2.523-2.523-2.523-2.523,2.523Zm26.624.242v-.035a2.99,2.99,0,0,0-2.294-3.009,2.856,2.856,0,0,0,1.611-2.643v-.035c0-1.925-1.541-3.169-4.044-3.169H67.253V67.854H73.08c2.765,0,4.587-1.119,4.587-3.361ZM74.3,59.256c0,.91-.753,1.3-1.942,1.3H69.878V57.967h2.66c1.137,0,1.768.454,1.768,1.259Zm.683,4.9c0,.91-.718,1.329-1.909,1.329h-3.2V62.8h3.114c1.384,0,2,.508,2,1.331Zm8.341,3.7V55.6h-2.7V67.854Zm14.488,0V55.6H95.145v7.544L89.405,55.6H86.92V67.854h2.66V60.066l5.931,7.788Zm14.929,0-5.259-12.339H105L99.749,67.854H102.5l1.124-2.747H108.8l1.119,2.747Zm-4.9-5.128h-3.265l1.628-3.972Zm17.746,5.128V55.6H122.92v7.544L117.179,55.6H114.7V67.854h2.658V60.066l5.934,7.788ZM139.5,65.877l-1.713-1.733a4.429,4.429,0,0,1-3.221,1.434,3.636,3.636,0,0,1-3.553-3.85v-.035a3.63,3.63,0,0,1,3.553-3.815,4.535,4.535,0,0,1,3.134,1.381l1.709-1.977a6.318,6.318,0,0,0-4.829-1.89,6.225,6.225,0,0,0-6.387,6.329v.035a6.461,6.461,0,0,0,11.3,4.12ZM151,67.854v-2.4h-6.66V62.877h5.776v-2.4h-5.776V58h6.564V55.6h-9.242V67.852Z" transform="translate(-39.87 -50.56)" fill="#a3a3a3"/>
  </g>
</svg>
