<svg xmlns="http://www.w3.org/2000/svg" width="192.757" height="41.267" viewBox="0 0 192.757 41.267">
  <g id="Group_4" data-name="Group 4" transform="translate(-212 -28.077)">
    <g id="Group_3" data-name="Group 3" transform="translate(-903.798 -2241.514)">
      <g id="Group_1" data-name="Group 1" transform="translate(1174.081 2278.702)">
        <path id="Path_1" data-name="Path 1" d="M1328.975,2335.739h-2.3l-5.6-12.231h3.707l2.246,5.223a16.5,16.5,0,0,1,.92,2.76,20.194,20.194,0,0,1,.893-2.814l2.111-5.169h3.274Z" transform="translate(-1321.073 -2317.31)" fill="#151515"/>
        <path id="Path_2" data-name="Path 2" d="M1375.72,2301.682a1.789,1.789,0,0,1,1.786,1.813,1.826,1.826,0,0,1-1.786,1.949,1.86,1.86,0,0,1-1.948-1.949A1.829,1.829,0,0,1,1375.72,2301.682Zm-1.623,6.2h3.112v12.177H1374.1Z" transform="translate(-1358.809 -2301.682)" fill="#151515"/>
        <path id="Path_3" data-name="Path 3" d="M1397.444,2326.167c0-2.381,1.949-3.708,4.465-3.708a6.735,6.735,0,0,1,4.627,1.542l-1.163,2.219a5.741,5.741,0,0,0-3.3-1.164c-.947,0-1.515.514-1.515,1.056,0,2.03,6.575.92,6.575,5.223,0,2.408-1.948,3.9-4.925,3.9-2.246,0-4.519-1.218-5.087-2.084l1.515-2.03a6.268,6.268,0,0,0,3.788,1.516c.893,0,1.6-.379,1.6-1.136C1404.019,2329.522,1397.444,2330.6,1397.444,2326.167Z" transform="translate(-1375.528 -2316.56)" fill="#151515"/>
        <path id="Path_4" data-name="Path 4" d="M1444.427,2301.682a1.789,1.789,0,0,1,1.786,1.813,1.826,1.826,0,0,1-1.786,1.949,1.86,1.86,0,0,1-1.948-1.949A1.829,1.829,0,0,1,1444.427,2301.682Zm-1.623,6.2h3.112v12.177H1442.8Z" transform="translate(-1408.009 -2301.682)" fill="#151515"/>
        <path id="Path_5" data-name="Path 5" d="M1467.446,2311.594h3.112v3.383h3.924v2.923h-3.924v4.438c0,1.326.433,2.192,1.461,2.192a3.025,3.025,0,0,0,1.867-.7l.947,2.408a5.855,5.855,0,0,1-3.6,1.191c-2.76,0-3.789-1.786-3.789-4.9Z" transform="translate(-1425.887 -2308.78)" fill="#151515"/>
        <path id="Path_6" data-name="Path 6" d="M1504.952,2322.459c4.032,0,6.63,2.733,6.63,6.386s-2.6,6.386-6.63,6.386-6.63-2.733-6.63-6.386S1500.92,2322.459,1504.952,2322.459Zm0,9.877a3.482,3.482,0,1,0-3.3-3.491A3.3,3.3,0,0,0,1504.952,2332.336Z" transform="translate(-1447.996 -2316.56)" fill="#151515"/>
        <path id="Path_7" data-name="Path 7" d="M1554.548,2322.961h3.112v1.191a3.124,3.124,0,0,1,2.787-1.407,2.919,2.919,0,0,1,1.894.46l-1.109,2.922a2.593,2.593,0,0,0-1.57-.46,2.1,2.1,0,0,0-2,1.3v8.172h-3.112Z" transform="translate(-1488.259 -2316.765)" fill="#151515"/>
        <path id="Path_8" data-name="Path 8" d="M1617.263,2333.121a5.959,5.959,0,0,1-4.844,2.111c-3.951,0-6.6-2.543-6.6-6.386a6.2,6.2,0,0,1,6.305-6.386,6.8,6.8,0,0,1,4.9,1.651l-1.461,2.462a4.091,4.091,0,0,0-3.031-1.19,3.366,3.366,0,0,0-3.383,3.463,3.419,3.419,0,0,0,3.518,3.491,4.154,4.154,0,0,0,3.139-1.488Z" transform="translate(-1524.97 -2316.56)" fill="#151515"/>
        <path id="Path_9" data-name="Path 9" d="M1653.078,2323.623a9.035,9.035,0,0,1,4.3-1.164c3.6,0,4.871,1.84,4.871,5.06v7.415h-2.706v-1.407a4.325,4.325,0,0,1-3.6,1.569,3.544,3.544,0,0,1-3.815-3.734c0-2.679,1.975-3.951,4.438-3.951a5.056,5.056,0,0,1,2.76.785c.081-2.03-.46-3.14-2.273-3.14a6.986,6.986,0,0,0-3.193.839Zm6.251,7.739v-1.245a3.455,3.455,0,0,0-2.138-.6c-1.028,0-1.948.487-1.948,1.516,0,.92.758,1.434,1.732,1.434A2.659,2.659,0,0,0,1659.329,2331.362Z" transform="translate(-1558.135 -2316.56)" fill="#151515"/>
        <path id="Path_10" data-name="Path 10" d="M1699.017,2322.961h3.112v1.191a3.124,3.124,0,0,1,2.787-1.407,2.92,2.92,0,0,1,1.894.46l-1.109,2.922a2.593,2.593,0,0,0-1.57-.46,2.1,2.1,0,0,0-2,1.3v8.172h-3.112Z" transform="translate(-1591.709 -2316.765)" fill="#151515"/>
        <path id="Path_11" data-name="Path 11" d="M1741.286,2333.716a7.287,7.287,0,0,1-4.654,1.515c-3.924,0-6.549-2.543-6.549-6.386a6.136,6.136,0,0,1,6.44-6.386,5.846,5.846,0,0,1,5.575,7.333H1733.3a3.356,3.356,0,0,0,3.653,2.841,5.632,5.632,0,0,0,3.437-1.109Zm-8.091-6.007h5.98a2.552,2.552,0,0,0-2.787-2.652A3.008,3.008,0,0,0,1733.2,2327.709Z" transform="translate(-1613.954 -2316.56)" fill="#151515"/>
        <path id="Path_12" data-name="Path 12" d="M1782.279,2352.2a2.044,2.044,0,0,1,1.975,2,2.082,2.082,0,0,1-1.975,2.165,2.118,2.118,0,0,1-2.165-2.165A2.089,2.089,0,0,1,1782.279,2352.2Z" transform="translate(-1649.78 -2337.853)" fill="#151515"/>
      </g>
      <g id="Group_2" data-name="Group 2" transform="translate(1115.798 2269.591)">
        <circle id="Ellipse_13" data-name="Ellipse 13" cx="2.456" cy="2.456" r="2.456" transform="translate(20.428 36.356)" fill="#bf214b"/>
        <circle id="Ellipse_14" data-name="Ellipse 14" cx="1.813" cy="1.813" r="1.813" transform="translate(15.887 36.913)" fill="#bf214b" opacity="0.75"/>
        <circle id="Ellipse_15" data-name="Ellipse 15" cx="1.813" cy="1.813" r="1.813" transform="translate(21.07 31.74)" fill="#bf214b" opacity="0.75"/>
        <circle id="Ellipse_16" data-name="Ellipse 16" cx="2.456" cy="2.456" r="2.456" transform="translate(15.245 31.097)" fill="#bf214b"/>
        <circle id="Ellipse_17" data-name="Ellipse 17" cx="1.813" cy="1.813" r="1.813" transform="translate(15.887 26.557)" fill="#bf214b" opacity="0.75"/>
        <circle id="Ellipse_18" data-name="Ellipse 18" cx="2.456" cy="2.456" r="2.456" transform="translate(35.976 20.731)" fill="#bf214b"/>
        <circle id="Ellipse_19" data-name="Ellipse 19" cx="1.813" cy="1.813" r="1.813" transform="translate(31.436 21.374)" fill="#bf214b" opacity="0.75"/>
        <circle id="Ellipse_20" data-name="Ellipse 20" cx="1.813" cy="1.813" r="1.813" transform="translate(10.705 21.374)" fill="#bf214b" opacity="0.75"/>
        <circle id="Ellipse_21" data-name="Ellipse 21" cx="2.456" cy="2.456" r="2.456" transform="translate(5.103 20.731)" fill="#bf214b"/>
        <circle id="Ellipse_22" data-name="Ellipse 22" cx="1.813" cy="1.813" r="1.813" transform="translate(0.339 21.374)" fill="#bf214b" opacity="0.75"/>
        <circle id="Ellipse_23" data-name="Ellipse 23" cx="1.813" cy="1.813" r="1.813" transform="translate(36.619 16.191)" fill="#bf214b" opacity="0.75"/>
        <circle id="Ellipse_24" data-name="Ellipse 24" cx="2.456" cy="2.456" r="2.456" transform="translate(30.793 15.549)" fill="#bf214b"/>
        <circle id="Ellipse_25" data-name="Ellipse 25" cx="1.813" cy="1.813" r="1.813" transform="translate(26.253 16.191)" fill="#bf214b" opacity="0.75"/>
        <circle id="Ellipse_26" data-name="Ellipse 26" cx="1.813" cy="1.813" r="1.813" transform="translate(5.826 16.495)" fill="#bf214b" opacity="0.75"/>
        <circle id="Ellipse_27" data-name="Ellipse 27" cx="2.456" cy="2.456" r="2.456" transform="translate(0 15.852)" fill="#bf214b"/>
        <circle id="Ellipse_28" data-name="Ellipse 28" cx="1.813" cy="1.813" r="1.813" transform="translate(21.07 11.009)" fill="#bf214b" opacity="0.75"/>
        <circle id="Ellipse_29" data-name="Ellipse 29" cx="2.456" cy="2.456" r="2.456" transform="translate(20.428 5.181)" fill="#bf214b"/>
        <circle id="Ellipse_30" data-name="Ellipse 30" cx="1.813" cy="1.813" r="1.813" transform="translate(15.887 5.826)" fill="#bf214b" opacity="0.75"/>
        <circle id="Ellipse_31" data-name="Ellipse 31" cx="1.813" cy="1.813" r="1.813" transform="translate(21.07 0.643)" fill="#bf214b" opacity="0.75"/>
        <circle id="Ellipse_32" data-name="Ellipse 32" cx="2.456" cy="2.456" r="2.456" transform="translate(15.245)" fill="#bf214b"/>
      </g>
    </g>
  </g>
</svg>
